HIERARCHY
ROOT Hips
{
	OFFSET 0.00 0.00 0.00
	CHANNELS 6 Xposition Yposition Zposition Xrotation Yrotation Zrotation
	JOINT RightUpLeg
	{
		OFFSET -3.76699 0.00000 0.00000
		CHANNELS 3 Xrotation Yrotation Zrotation
		JOINT RightLeg
		{
			OFFSET 0.00000 -18.01768 0.00000
			CHANNELS 3 Xrotation Yrotation Zrotation
			JOINT RightFoot
			{
				OFFSET 0.00000 -16.88108 0.00000
				CHANNELS 3 Xrotation Yrotation Zrotation
				JOINT RightToeBase
				{
					OFFSET 0.00000 -1.49359 5.57418
					CHANNELS 3 Xrotation Yrotation Zrotation
					End Site
					{
						OFFSET 0.00000 0.00000 2.95275
					}
				}
			}
		}
	}
	JOINT LeftUpLeg
	{
		OFFSET 3.76699 0.00000 0.00000
		CHANNELS 3 Xrotation Yrotation Zrotation
		JOINT LeftLeg
		{
			OFFSET 0.00000 -18.01768 0.00000
			CHANNELS 3 Xrotation Yrotation Zrotation
			JOINT LeftFoot
			{
				OFFSET 0.00000 -16.88108 0.00000
				CHANNELS 3 Xrotation Yrotation Zrotation
				JOINT LeftToeBase
				{
					OFFSET 0.00000 -1.49359 5.57418
					CHANNELS 3 Xrotation Yrotation Zrotation
					End Site
					{
						OFFSET 0.00000 0.00000 2.95275
					}
				}
			}
		}
	}
	JOINT Spine
	{
		OFFSET 0.00000 7.77970 0.00000
		CHANNELS 3 Xrotation Yrotation Zrotation
		JOINT RightShoulder
		{
			OFFSET 0.00000 10.94176 0.00000
			CHANNELS 3 Xrotation Yrotation Zrotation
			JOINT RightArm
			{
				OFFSET -7.70894 0.00000 0.00000
				CHANNELS 3 Xrotation Yrotation Zrotation
				JOINT RightForeArm
				{
					OFFSET -11.52135 0.00000 0.00000
					CHANNELS 3 Yrotation Zrotation Xrotation
					JOINT RightHand
					{
						OFFSET -10.17590 0.00000 0.00000
						CHANNELS 3 Xrotation Yrotation Zrotation
						End Site
						{
							OFFSET -3.93700 0.00000 0.00000
						}
						JOINT RightHandThumb1
						{
							OFFSET 0.00000 0.00000 0.00000
							CHANNELS 3 Xrotation Zrotation Yrotation
							End Site
							{
								OFFSET 0.00000 0.00000 3.93700
							}
						}
					}
				}
			}
		}
		JOINT LeftShoulder
		{
			OFFSET 0.00000 10.94176 0.00000
			CHANNELS 3 Xrotation Yrotation Zrotation
			JOINT LeftArm
			{
				OFFSET 7.70894 0.00000 0.00000
				CHANNELS 3 Xrotation Yrotation Zrotation
				JOINT LeftForeArm
				{
					OFFSET 11.52135 0.00000 0.00000
					CHANNELS 3 Yrotation Zrotation Xrotation
					JOINT LeftHand
					{
						OFFSET 10.17590 0.00000 0.00000
						CHANNELS 3 Xrotation Yrotation Zrotation
						End Site
						{
							OFFSET 3.93700 0.00000 0.00000
						}
						JOINT LeftHandThumb1
						{
							OFFSET 0.00000 0.00000 0.00000
							CHANNELS 3 Xrotation Zrotation Yrotation
							End Site
							{
								OFFSET 0.00000 0.00000 3.93700
							}
						}
					}
				}
			}
		}
		JOINT Head
		{
			OFFSET 0.00000 16.64604 0.00000
			CHANNELS 3 Xrotation Yrotation Zrotation
			End Site
			{
				OFFSET 0.00000 4.52755 0.00000
			}
		}
	}
}
MOTION
Frames: 11
Frame Time: 0.008333
 1.4367 34.5013 0.0503 9.0306 15.1028 4.0196 -8.3524 -15.6733 -30.3928 -5.0525 0.0000 -0.0000 8.5831 -29.0063 27.4059 12.8413 0.0000 0.0000 -17.9178 -12.8566 13.6971 9.2084 -0.0000 -0.0000 2.1536 16.0120 -31.6704 10.4659 -0.0000 0.0000 34.6603 -2.6151 -11.2181 15.3882 -3.7872 -26.4438 -17.7660 1.5415 57.6106 30.5001 0.0000 -18.0698 3.5323 9.9927 -19.5825 32.8623 0.0000 -24.3270 32.5994 34.7272 5.7888 -47.6268 6.4619 -49.5429 -7.4006 0.0000 23.5357 -4.4230 24.4345 10.5916 33.1476 -0.0000 26.2537 -12.4887 -1.6393 -4.4720
 1.4170 34.5049 0.1651 8.8048 14.9333 4.0533 -7.9516 -15.6787 -30.2712 -5.1232 -0.0000 0.0000 8.5030 -28.9664 27.5391 12.8291 -0.0000 0.0000 -17.4448 -12.6197 13.8589 9.0847 -0.0000 -0.0000 2.2772 16.0017 -31.7668 10.3259 0.0000 -0.0000 34.0181 -2.8674 -11.2028 15.3161 -4.0748 -26.2866 -17.9584 1.0983 57.4281 30.4146 0.0000 -18.0364 3.7308 10.2629 -20.1024 32.8623 0.0000 -24.3270 32.4655 34.7679 5.9224 -47.7738 6.4820 -49.4787 -7.3852 0.0000 23.7176 -4.4318 24.4701 10.5979 33.1476 -0.0000 26.2537 -12.7399 -1.6410 -4.0343
 1.3976 34.5073 0.2801 8.6048 14.7263 4.0796 -7.5841 -15.6466 -30.1518 -5.1779 -0.0000 0.0000 8.4191 -28.9359 27.7032 12.8252 -0.0000 -0.0000 -17.0283 -12.2803 14.0300 8.9913 0.0000 0.0000 2.3375 15.8719 -31.7247 10.2245 -0.0000 -0.0000 33.3506 -3.0825 -11.2203 15.1719 -4.3342 -26.1302 -18.0934 0.6674 57.2399 30.2811 0.0000 -18.0331 3.6804 10.2335 -19.9031 32.8623 0.0000 -24.3270 32.3164 34.8019 6.0832 -47.9427 6.5836 -49.3998 -7.4367 0.0000 23.9214 -4.4149 24.6347 10.4938 33.1476 -0.0000 26.2537 -12.9690 -1.6824 -3.6066
 1.3796 34.5104 0.3987 8.4162 14.5353 4.1057 -7.2450 -15.6722 -30.0433 -5.2496 0.0000 0.0000 8.3882 -28.8554 27.8479 12.8717 0.0000 -0.0000 -16.5895 -12.0085 14.1833 8.8790 0.0000 0.0000 2.3610 15.8469 -31.7029 10.1199 -0.0000 0.0000 32.6710 -3.2879 -11.2163 15.0098 -4.6065 -25.9904 -18.1817 0.2909 57.0618 30.1572 0.0000 -18.0085 3.6249 10.1552 -19.7637 32.8623 0.0000 -24.3270 32.1234 34.8019 6.2462 -48.0006 6.6343 -49.2888 -7.5167 0.0000 23.9920 -4.3840 24.7174 10.3896 33.1476 -0.0000 26.2537 -13.1200 -1.6745 -3.1735
 1.3635 34.5128 0.5157 8.2324 14.3299 4.1372 -6.8858 -15.6305 -29.9411 -5.3164 -0.0000 -0.0000 8.3631 -28.8474 28.0358 12.9236 0.0000 0.0000 -16.2027 -11.6323 14.3219 8.8182 -0.0000 0.0000 2.3214 15.7278 -31.6293 9.9609 -0.0000 0.0000 31.9917 -3.4742 -11.2204 14.8272 -4.8320 -25.8459 -18.2691 -0.1489 56.8418 30.0660 0.0000 -17.9826 3.6140 10.0095 -19.9701 32.8623 0.0000 -24.3270 31.9441 34.8057 6.4288 -48.0573 6.6332 -49.1928 -7.5333 0.0000 24.1075 -4.3308 24.7650 10.2475 33.1476 -0.0000 26.2537 -13.2652 -1.6250 -2.7676
 1.3435 34.5154 0.6318 8.0571 14.0881 4.1524 -6.5735 -15.5726 -29.8190 -5.3404 0.0000 -0.0000 8.3129 -28.8091 28.1656 13.1548 -0.0000 -0.0000 -15.7860 -11.2965 14.4921 8.7471 0.0000 0.0000 2.2469 15.6885 -31.6054 9.9930 0.0000 0.0000 31.3247 -3.6048 -11.2504 14.6818 -5.1017 -25.6907 -18.3593 -0.4479 56.6057 29.9256 0.0000 -18.0010 3.5994 9.8601 -20.1704 32.8623 0.0000 -24.3270 31.7694 34.8131 6.6667 -48.1206 6.7274 -49.1411 -7.6425 0.0000 24.1920 -4.3446 24.8557 10.2453 33.1476 -0.0000 26.2537 -13.4004 -1.6014 -2.3188
 1.3270 34.5179 0.7481 7.8866 13.8482 4.1618 -6.2612 -15.5129 -29.6936 -5.3784 -0.0000 -0.0000 8.2777 -28.7775 28.2164 13.1605 -0.0000 0.0000 -15.3642 -11.0091 14.6564 8.6855 -0.0000 -0.0000 2.1715 15.7129 -31.6144 9.8850 0.0000 -0.0000 30.6660 -3.7299 -11.2511 14.5277 -5.4104 -25.5348 -18.5106 -0.7117 56.3446 29.7874 0.0000 -18.0035 3.5511 9.6274 -20.3585 32.8623 0.0000 -24.3270 31.6209 34.8507 6.8448 -48.2173 6.7104 -49.0913 -7.6608 0.0000 24.3083 -4.2786 24.8632 10.0895 33.1476 -0.0000 26.2537 -13.5449 -1.6023 -1.8931
 1.3116 34.5205 0.8658 7.7138 13.5829 4.1842 -5.9770 -15.4547 -29.5843 -5.4013 0.0000 0.0000 8.2368 -28.7296 28.2486 13.1316 -0.0000 0.0000 -14.9317 -10.7280 14.8123 8.6352 0.0000 -0.0000 2.0767 15.7561 -31.6458 9.9271 -0.0000 0.0000 30.0152 -3.8680 -11.2830 14.3769 -5.6921 -25.3867 -18.6637 -0.9463 56.0805 29.6547 0.0000 -17.8964 3.4757 9.3768 -20.4448 32.8623 0.0000 -24.3270 31.5021 34.9224 7.0204 -48.3293 6.7567 -49.0512 -7.7596 0.0000 24.4919 -4.2349 24.9574 9.9535 33.1476 -0.0000 26.2537 -13.6998 -1.5421 -1.4551
 1.2940 34.5226 0.9809 7.5620 13.2950 4.1947 -5.7307 -15.3516 -29.4711 -5.3750 -0.0000 -0.0000 8.1336 -28.6575 28.2418 13.1677 -0.0000 0.0000 -14.4972 -10.4763 14.9773 8.5738 -0.0000 -0.0000 1.9894 15.8636 -31.6899 9.9245 0.0000 -0.0000 29.3668 -3.9736 -11.3158 14.2747 -6.0322 -25.2350 -18.9279 -1.1627 55.8129 29.4832 0.0000 -17.8516 3.4536 9.3078 -20.4619 32.8623 0.0000 -24.3270 31.4632 35.0418 7.0991 -48.5971 6.7092 -48.9975 -7.7287 0.0000 24.8107 -4.2331 24.9407 9.9556 33.1476 -0.0000 26.2537 -13.8658 -1.4401 -1.0446
 1.2765 34.5263 1.0964 7.3907 12.9893 4.1880 -5.4297 -15.2080 -29.3275 -5.3696 -0.0000 -0.0000 8.0745 -28.6327 28.2608 13.1493 0.0000 -0.0000 -14.0461 -10.2105 15.1654 8.5336 0.0000 0.0000 1.8779 15.9262 -31.6996 9.8062 -0.0000 0.0000 28.7585 -4.0262 -11.3210 14.1778 -6.3762 -25.1227 -19.2166 -1.4689 55.5821 29.3907 0.0000 -17.6506 3.3820 9.0903 -20.5083 32.8623 0.0000 -24.3270 31.2851 35.0581 7.3150 -48.5033 6.6429 -48.9578 -7.9288 0.0000 24.9472 -4.2657 25.2110 9.9323 33.1476 -0.0000 26.2537 -14.0088 -1.3475 -0.6718
 1.2600 34.5290 1.2161 7.1976 12.6911 4.1935 -5.1142 -15.0901 -29.2007 -5.3607 0.0000 -0.0000 8.0067 -28.5886 28.3025 13.0958 -0.0000 -0.0000 -13.5755 -9.9488 15.3370 8.5033 0.0000 0.0000 1.7564 16.0380 -31.7423 9.7675 0.0000 -0.0000 28.1810 -4.0915 -11.3291 14.0791 -6.7403 -24.9831 -19.5829 -1.8032 55.3311 29.2772 0.0000 -17.2351 3.2728 8.8608 -20.3668 32.8623 0.0000 -24.3270 31.1309 35.1079 7.4954 -48.6279 6.6159 -48.8928 -7.9316 0.0000 25.2477 -4.2281 25.1665 9.8621 33.1476 -0.0000 26.2537 -14.1722 -1.2436 -0.3013
